<svg width="24" height="22" viewBox="0 0 24 22" fill="none" xmlns="http://www.w3.org/2000/svg">
<g clip-path="url(#clip0_285_34)">
<path d="M22.8167 4.325L20.4292 0.545833C20.2167 0.208333 19.8375 0 19.4333 0H4.56668C4.16251 0 3.78334 0.208333 3.57084 0.545833L1.17918 4.325C-0.0541571 6.275 1.03751 8.9875 3.34168 9.3C3.50834 9.32083 3.67918 9.33333 3.84584 9.33333C4.93334 9.33333 5.90001 8.85833 6.56251 8.125C7.22501 8.85833 8.19168 9.33333 9.27918 9.33333C10.3667 9.33333 11.3333 8.85833 11.9958 8.125C12.6583 8.85833 13.625 9.33333 14.7125 9.33333C15.8042 9.33333 16.7667 8.85833 17.4292 8.125C18.0958 8.85833 19.0583 9.33333 20.1458 9.33333C20.3167 9.33333 20.4833 9.32083 20.65 9.3C22.9625 8.99167 24.0583 6.27917 22.8208 4.325H22.8167ZM20.8208 10.6208H20.8167C20.5958 10.65 20.3708 10.6667 20.1417 10.6667C19.625 10.6667 19.1292 10.5875 18.6667 10.4458V16H5.33334V10.4417C4.86668 10.5875 4.36668 10.6667 3.85001 10.6667C3.62084 10.6667 3.39168 10.65 3.17084 10.6208H3.16668C2.99584 10.5958 2.82918 10.5667 2.66668 10.525V18.6667C2.66668 20.1375 3.86251 21.3333 5.33334 21.3333H18.6667C20.1375 21.3333 21.3333 20.1375 21.3333 18.6667V10.525C21.1667 10.5667 21 10.6 20.8208 10.6208Z" fill="white"/>
</g>
<defs>
<clipPath id="clip0_285_34">
<rect width="24" height="21.3333" fill="white"/>
</clipPath>
</defs>
</svg>
